<?xml version="1.0" encoding="utf-8"?>
<!-- Generator: Adobe Illustrator 19.1.0, SVG Export Plug-In . SVG Version: 6.00 Build 0)  -->
<svg version="1.1" id="Layer_1" xmlns="http://www.w3.org/2000/svg" xmlns:xlink="http://www.w3.org/1999/xlink" x="0px" y="0px"
	 viewBox="0 0 324 98.6" style="enable-background:new 0 0 324 98.6;" xml:space="preserve">
<style type="text/css">
	.st0{fill:#E90B8D;}
	.st1{fill:#FFFFFF;}
</style>
<g>
	<g>
		<path class="st0" d="M188.7,50.4c-0.5,1.4-2,2.3-4.6,2.7c0.1,5.5,0.3,10.7,0.6,15.6l0.3,7.2c0,0.1,0.1,0.2,0.2,0.4
			c0.1,0.2,0.2,0.3,0.2,0.4c0,0.4-0.1,0.7-0.3,0.8c-0.2,0.1-0.4,0.1-0.7,0.1c-0.5,0-1.1-0.1-1.8-0.4c-1.8-0.7-2.7-1.9-2.8-3.6v-5
			l-0.1-15c-4.3,0.5-9.8,1.1-16.6,1.7c0,3.3,0.2,7.9,0.6,14c0.2,1,0.5,2.3,1,3.7c0.2,0.4,0.4,0.7,0.4,1.1c0,0.6-0.5,0.9-1.4,0.9
			c-1.4,0-2.6-0.6-3.7-1.7c-1.1-1.2-1.6-2.4-1.6-3.8c0-7,0-11.6-0.1-13.7c-1.4,0.1-2.1,0.2-2.4,0.2c-0.9,0-2.2-0.3-3.7-0.9
			c-1.8-0.7-2.6-1.4-2.6-2.1v-0.2l0.1-0.3c0.2-0.2,3.1-0.7,8.7-1.3c-0.2-5.9-0.5-14.8-1-26.7c-0.2-2.1-0.4-5.2-0.7-9.4
			c-0.4-0.7-0.5-1.1-0.5-1.4c0-0.2,0-0.4,0.1-0.6c0.1-0.1,0.3-0.2,0.7-0.2c0.9,0,2.1,0.2,3.6,0.7c1.8,0.6,2.8,1.2,2.8,1.9
			c0,1,0,2.3-0.1,4c0,2-0.1,3.4-0.1,4c0,4.8-0.1,10-0.1,15.7c0,3.9,0,7.8,0,11.5l16.7-1.4c-0.1-6.2-0.3-15.7-0.8-28.3
			c0-0.8-0.1-3.7-0.4-8.6c-0.2-3.5-0.3-6.4-0.3-8.6c0-0.1,0-0.2,0.1-0.3l0.1-0.1l0.2-0.1c0.1,0,0.7,0.2,2,0.4
			c2.6,0.6,3.8,1.4,3.8,2.5c0,4.2-0.1,10.4-0.2,18.7c-0.1,8.3-0.2,14.5-0.2,18.6c0,1.8,0,3.7,0.1,5.9c1,0.1,1.8,0.1,2.5,0.2
			c1.2,0.2,1.9,0.4,2,0.8V50.4z"/>
		<path class="st0" d="M212.8,48.5c0,9.3-1.7,16.2-5,20.6c-1.8,2.4-3.9,3.7-6.1,3.7c-4.5,0-7.9-2.6-10.2-7.8
			c-1.7-4-2.6-8.6-2.6-13.7c0-2.4,0.3-5.5,0.8-9.2c0.7-4.8,1.5-7.5,2.4-8.1c0.4-0.2,1-0.4,1.6-0.4c0.3,0,0.6,0.1,1,0.2
			c1-2.1,1.8-3.5,2.5-4.2c1.2-1.3,2.6-2,4.4-2c1.2,0,2.4,0.3,3.4,0.9C210.1,31.7,212.8,38.3,212.8,48.5z M208.4,49.7
			c0-10.2-1.7-16.7-5-19.6c-0.5-0.5-0.9-0.7-1.1-0.7c-0.4,0-0.9,0.2-1.3,0.6c-2.8,2.4-4.2,7-4.2,13.6c0,4,0.7,7.1,2,9.3
			c0.1,0.2,0.5,0.7,1.3,1.4c0.7,0.8,1.1,1.2,1.1,1.4c0,0.5-0.5,0.7-1.4,0.7c-2.6,0-4.7-2.1-6.1-6.2v1.1c-0.1,3.8,0.4,7.3,1.2,10.4
			c1.2,4.2,3.1,7,5.6,8.5c0.7,0.4,1.2,0.5,1.5,0.5c0.4,0,0.8-0.2,1.2-0.5c1.8-1.5,3.2-4.7,4.2-9.5C208.1,57.2,208.4,53.5,208.4,49.7
			z"/>
		<path class="st0" d="M236.3,52.9c0,3.7-0.6,7.8-1.8,12c-1.6,5.8-3.7,8.6-6.3,8.6c-8.5,0-12.7-10.8-12.7-32.4c0-2.8,0-5.5,0-7.8
			c-0.9,0.1-1.4,0.2-1.7,0.2c-0.6,0-1.4-0.2-2.5-0.6c-1.1-0.4-1.7-0.8-1.7-1.3c0-0.2,0.5-0.4,1.6-0.5l4.5-0.7
			c0.2-3.5,0.6-8.8,1.1-15.9c0.1,0,0.2,0,0.4-0.1c0.3,0,0.7,0.1,1.2,0.2c2.7,0.6,4.2,1.4,4.3,2.5c-0.2,2-0.5,4.1-0.8,6.5
			c-0.2,2-0.4,4-0.5,6c6.7-0.8,9.9-1.2,9.9-1.2c0.4,0,0.6,0.1,0.6,0.4c0,0.7-0.7,1.2-2,1.7c0.1,0.1,0.2,0.2,0.2,0.4
			c0,0.4-0.2,0.8-0.6,1.1c-0.2,0.1-2.9,0.5-8.2,1.1c-0.2,3.2-0.4,5.9-0.4,8.1c0,7.1,0.2,12.4,0.6,15.7c0.8,7,2.4,11.6,4.8,13.7
			c0.6,0.5,1.1,0.7,1.5,0.8c2.1-1.6,3.7-4.5,5-8.8c0.8-2.7,1.4-5.6,1.8-8.7c0.1-1.2,0.4-1.9,0.8-1.9
			C235.9,51.9,236.3,52.2,236.3,52.9z"/>
		<path class="st1" d="M267.6,62.4c0,1.9-0.3,4.3-1,7.1c-0.8,3.7-1.9,5.6-3.3,5.6c-0.1,0-0.3,0-0.6-0.1c-2.5-0.4-4.2-2.8-5.3-7.3
			c-0.7-2.8-1.1-6.1-1.1-9.9c0-2.5,0.1-5.2,0.2-8c-1.2,7.2-2.1,12.7-2.5,16.3c-0.4,2.5-0.5,4.1-0.5,4.7c0,0.3,0,0.8,0.1,1.5
			c0.1,0.7,0.1,1.1,0.1,1.5c0,0.3-0.2,0.5-0.7,0.5c-1.2,0-2.1-0.3-2.4-1c-0.2-0.3-0.3-0.7-0.4-1.1c-0.3-2.8-0.9-10.9-1.8-24.4
			c-0.8,5.3-1.5,9.9-2,14c-0.7,5.7-1,9.7-1,12.1c0,0.2,0,0.9,0.1,1.9c0.1,0.1,0.1,0.3,0.1,0.4c0,0.1,0,0.2-0.1,0.2
			c0,0.2-0.3,0.4-0.8,0.4c-0.3,0-0.8-0.1-1.5-0.3c-0.7-0.2-1.1-0.4-1.2-0.7c-0.2-0.2-0.3-0.5-0.3-0.9c-0.3-6-0.8-15.1-1.7-27.1
			c-0.2-2.1-0.5-5.2-1.1-9.3c-0.1-0.6-0.3-0.9-0.6-0.9c-0.7,0-1.8,1.8-3.1,5.3c-1.3,3.3-1.9,5.5-1.9,6.6c0.2,0.2,0.2,0.4-0.1,0.5
			c-0.5,0-1-0.2-1.6-0.5c-0.5-0.3-0.8-0.7-0.8-1.2c0-0.4,0.3-1.3,0.8-2.9c0.6-1.9,1.4-3.7,2.4-5.4c1.4-2.5,2.7-3.7,3.9-3.7
			c1.4,0,2.5,0.8,3.2,2.3c1.7,3.3,2.7,12.7,3.1,28.3c0.1-1.2,0.3-3.2,0.7-6.2c0.5-4.2,1.2-9.7,2.1-16.5c0.1-0.9,0.3-2.3,0.6-4.1
			c0-0.1,0.2-0.2,0.4-0.2c0.1,0,0.5,0.1,1.2,0.3c1.3,0.3,2,0.6,2.3,0.9c0.2,0.3,0.3,1.1,0.3,2.4c0,5.7,0.2,13,0.7,21.7
			c0.6-4.4,1.6-11,3.3-19.8l0.5-2.4c0.1-0.4,0.3-0.6,0.6-0.6c0.2,0,1.1,0.3,2.5,0.8c0.5,0.2,0.8,0.8,0.8,1.8l-0.2,2.6
			c-0.4,5-0.5,8.2-0.5,9.4c0,9,1.1,14.3,3.2,16c1-0.2,1.8-1.9,2.5-5c0.2-0.7,0.5-2.8,1.1-6.1c0.1-0.4,0.3-0.5,0.7-0.4
			C267.4,61.6,267.6,61.9,267.6,62.4z"/>
		<path class="st1" d="M284.3,64c0,1.4-0.3,3.2-0.8,5.4c-0.7,2.8-1.6,4.1-2.5,4.1c-1.7,0-3.1-1.4-4.2-4.1c-0.8-1.9-1.3-4-1.6-6.3
			c-0.6,6.6-1.8,9.9-3.6,9.9c-1,0-1.9-0.4-2.8-1.3c-2.4-2.3-3.7-6.4-3.7-12.3c0-0.7,0.1-1.7,0.3-3c0.4-2.5,1.2-4.9,2.3-7
			c1.6-2.9,3-4.4,4.3-4.4c0.7,0,1.8,0.5,3.2,1.6c1.5,1.1,2.2,1.9,2.2,2.4c0,0.3-0.1,0.4-0.4,0.4c0,0-0.4-0.3-1-0.9
			c-0.7-0.6-1.2-0.9-1.8-0.9c-0.3,0-0.6,0.1-1.1,0.4c-1.8,1.1-3.1,3.2-4,6.4c-0.8,2.5-1.2,5.1-1.2,7.7c0,3.4,0.5,6,1.6,8
			c0.6,1.1,1,1.6,1.3,1.6c0.2,0,0.5-0.3,0.9-0.8c1.4-2,2.3-7.3,2.9-15.9c0.1-1.7,0.3-2.6,0.6-2.6c0.7,0,1.3,0.1,2,0.3
			c0.8,0.3,1.3,0.7,1.3,1.3c0,0.6,0,1.6-0.1,2.9c-0.1,1.3-0.1,2.3-0.1,2.9c0,2.2,0.2,4.4,0.5,6.4c0.5,2.9,1.2,4.8,2.2,5.4
			c0.9-1.2,1.6-3.5,2.2-6.6c0.2-1.1,0.4-1.7,0.7-1.7C284.2,63.4,284.3,63.6,284.3,64z"/>
		<path class="st1" d="M306.9,64.3c0,1.2-0.2,2.8-0.7,4.7c-0.6,2.4-1.3,3.7-2,4c-0.1,0.1-0.4,0.1-0.8,0.1c-2.2,0-3.7-1.6-4.6-4.7
			c-0.6-2-0.8-4.4-0.8-7.3c0-1.6,0.1-3,0.2-4.4c-1.8,7.2-2.8,12.1-2.8,14.8c0,0.3,0.1,0.8,0.3,1.4c0,0.3-0.1,0.4-0.4,0.4
			c-0.5,0-1-0.2-1.6-0.5c-0.6-0.4-0.9-0.8-1.1-1.2c-0.2-0.5-0.5-5.6-0.9-15.5l-2,9.1c-0.7,3.4-1.1,5.3-1.1,5.7c0,0.3,0,0.7,0.1,1.2
			c0.1,0.5,0.1,0.9,0.1,1.2c0,0.3-0.2,0.4-0.5,0.4c-0.2,0-0.5-0.1-0.8-0.2c-1.5-0.6-2.2-1.3-2.2-2.3l-0.4-11.6
			c-0.1,2-0.2,3.4-0.3,4.2c-0.2,2.3-0.4,3.6-0.7,3.8c0,0-0.1,0.1-0.2,0.1c-0.7,0-0.9-0.3-0.8-0.8c0.1-0.7,0.3-1.4,0.4-2.1
			c0.6-3.6,0.9-8.2,0.9-13.8c0-1.3,0-2.4-0.1-3.2c-0.1-0.2-0.2-0.6-0.3-1.1l0.2-0.1c0,0,0.6,0.1,1.6,0.4c0.8,0.2,1.3,0.4,1.5,0.8
			c0.2,0.4,0.3,1,0.3,1.9l0.3,16.5l3.3-15c0.2-1,0.5-1.4,1-1.4c0,0,0.2,0.1,0.6,0.2c0.8,0.2,1.4,0.4,1.5,0.5
			c0.6,0.3,0.8,0.7,0.8,1.3c0-0.1-0.1,0.6-0.2,2.1c-0.1,1.9-0.2,3.9-0.2,6.1v3c0,0.9,0,1.9,0.1,3.1l3.1-13.6
			c0.1-0.5,0.3-0.7,0.6-0.7c0,0,0.3,0.1,1.1,0.3c0.8,0.2,1.2,0.3,1.3,0.3c0.4,0.2,0.5,0.6,0.5,1.2c0,0.2-0.1,1.3-0.3,3.1
			c-0.2,2-0.4,3.8-0.4,5.4c0,6.1,0.8,9.4,2.5,10c0.7-0.4,1.6-2.7,2.5-7.1c0.1-0.4,0.2-0.6,0.5-0.6C306.7,63.9,306.9,64,306.9,64.3z"
			/>
		<path class="st1" d="M324,64c0,1.4-0.3,3.2-0.8,5.4c-0.7,2.8-1.6,4.1-2.5,4.1c-1.7,0-3.1-1.4-4.2-4.1c-0.8-1.9-1.3-4-1.6-6.3
			c-0.6,6.6-1.8,9.9-3.6,9.9c-1,0-1.9-0.4-2.8-1.3c-2.4-2.3-3.7-6.4-3.7-12.3c0-0.7,0.1-1.7,0.3-3c0.4-2.5,1.2-4.9,2.3-7
			c1.6-2.9,3-4.4,4.3-4.4c0.7,0,1.8,0.5,3.2,1.6c1.5,1.1,2.2,1.9,2.2,2.4c0,0.3-0.1,0.4-0.4,0.4c0,0-0.4-0.3-1-0.9
			c-0.7-0.6-1.2-0.9-1.8-0.9c-0.3,0-0.6,0.1-1.1,0.4c-1.8,1.1-3.1,3.2-4,6.4c-0.8,2.5-1.2,5.1-1.2,7.7c0,3.4,0.5,6,1.6,8
			c0.6,1.1,1,1.6,1.3,1.6c0.2,0,0.5-0.3,0.9-0.8c1.4-2,2.3-7.3,2.9-15.9c0.1-1.7,0.3-2.6,0.6-2.6c0.7,0,1.3,0.1,2,0.3
			c0.8,0.3,1.3,0.7,1.3,1.3c0,0.6,0,1.6-0.1,2.9c-0.1,1.3-0.1,2.3-0.1,2.9c0,2.2,0.2,4.4,0.5,6.4c0.5,2.9,1.2,4.8,2.2,5.4
			c0.9-1.2,1.6-3.5,2.2-6.6c0.2-1.1,0.4-1.7,0.7-1.7C323.8,63.4,324,63.6,324,64z"/>
		<g>
			<path class="st0" d="M120,42.3c-2.3-1.9-3.5,1.2-3.6,1.4l-0.8,0.5l-1.3,0.3l0,0c-18.8,1.8-24.4-0.5-24.4-0.5
				c-4.7-2.1-3.8-6.3-3.8-6.3c14.5,7.2,16.2-2.1,16.2-2.1c2.2,0.3,4.5-1,4.5-1c-5-2.7-3.2-8.3-3.2-8.3c1,1,1.6,0.9,1.6,0.9
				c-0.5-1.9-1.2-2.8-1.2-2.8c-8.3-11.7-21.5-5-21.5-5c-3.9,2.5-3.9-2-3.9-2c0.5-1.5-0.5-3.7-0.5-3.7C71.7-5.1,54.1,1,54.1,1
				C63.4,0.6,66,3,66,3c-3.6-0.6-9.5-0.5-9.5-0.5C40.8,4.3,46,15.5,46,15.5c0.1-6.4,6-7.7,6-7.7c12.7-2.5,8.7,9.8,8.7,9.8
				c2.3,11.5,16,8.5,16,8.5c-1.1,3.9,2.8,7.3,2.8,7.3c1.1,1.7-2.6,1.6-2.6,1.6c2.4,2.3,4.8,0.9,4.8,0.9c1.6-0.8,1.9,2.7,1.9,2.7
				c-0.1,2.2-1.5,1.9-1.5,1.9s-14.6-5.2-22.3-3.5c-7.6,1.7-18.6,1.4-18.6,1.4l0.4,1.6l7.6,1.2c6.4-2.5,24.2,2,24.2,2
				c-2.4,1.4-2.2,6.3-2.2,6.3c0.4,5-3.8,6.8-3.8,6.8c-14.1,3-17,18.3-17,18.3c0.3-2.6-2.5-5.2-2.5-5.2c-1.6-1.7-3.4-6.7-3.4-6.7
				c-3,0-6.7,6.2-6.7,6.2c2.2-0.3,4.1-2.4,4.1-2.4c1.5-0.8,2.3-0.4,2.3-0.4c1.1,1.1,1.5,11,1.5,11c0.1,8.9,7.3,5.5,7.3,5.5
				c26.4-17,44.5-16,44.5-16c3,0-0.6,8.1-0.6,8.1c-1.9,3.8-0.6,7.7-0.6,7.7c5.8-0.2,7.6-5.7,7.6-5.7c-2.5,2.2-3.5,2-3.5,2
				c-3.3-0.1-1.7-2.3-1.7-2.3c13.1-16.2,8-19,8-19c-6.7-4.5-27.1-0.1-27.1-0.1c0.3-2.8,3.7-3.8,3.7-3.8c8.4,1,8-4.6,8-4.6
				c13.8,2.2,22.4-2.5,22.4-2.5c0.3-0.1,0.7-0.1,1-0.2l1.2,0.1l0.4,0.3c0.6,0.5,1.2,0.9,1.7,1.1l0.1,0.1l0,0
				c3.3,1.4,3.3-3.9,3.3-3.9C121.6,41.7,120,42.3,120,42.3z"/>
			<path class="st1" d="M54,44.1c0,0-1.4-3.1-5.7-4.1l-5.7-0.4c4.5-3.1,0.7-7.2,0.7-7.2c0.7-0.3,1.7,1,1.7,1
				c0.2-3.2-5.9-4.9-5.9-4.9c-0.6-0.9,3.7-0.8,3.7-0.8C40.1,26,35,27.7,35,27.7c-0.6-0.4,0.8-1.4,0.8-1.4c-0.9-0.2-2.2,1.1-2.2,1.1
				c-3.3-2.5-5.7-1-5.7-1c2.1,0,2.8,1.6,2.8,1.6c-6.5-1.3-6.1,4.7-6.1,4.7c-2.1-1.9-0.3-4.6-0.3-4.6l0.5-0.7
				c0.2-0.2,0.5-0.4,0.6-0.5l1.3-0.5l1.1-1.2L27,23.9l-2.5-1.2L23,23.3l-0.2,2.3l-0.1,2.1c-0.8,1.6-1.9,3.3-1.9,3.3
				c-2.2,4.9,3.7,7.7,3.7,7.7c-0.4,3.2-4.1,2-4.1,2c-1.8-2-7-4.2-7-4.2c-2.5-1.2-10.1,1.3-10.1,1.3c-1.4-3.1-2.6-2.5-2.6-2.5
				c-2,1.3,1.3,5.3,1.3,5.3c0.7,0.4,1.4-0.3,1.4-0.3C4.6,41,11.4,41,11.4,41c7.5,2.8,5.9,6.5,5.9,6.5c-6.5,3.7-5.7,12.4-5.7,12.4
				c-1.9-1.3-4.8-0.5-4.8-0.5s2.4,2.1,6.5,3.3c0,0,0.2-2.4,0.8-2.5c0,0,3.8-5.4,3.1-6.2c0,0,7.7-0.5,8.6-3c0,0,0.8,0.6,1,2.3
				c0,0,7.9-4.7,8.6-8.5c0,0,5-6.8,15.2-0.8l-1.4,1.9l1.8,1.9l2.9-0.8l0.3-1.5L54,44.1z"/>
			<path class="st0" d="M43.6,39c0,0-3.4,1.2-2.8,4.3c0,0-0.1,2.6,5.8,0.4l2.1-3.8"/>
		</g>
		<g>
			<g>
				<path class="st0" d="M157.8,81.7h4.3v1.2h-1.4v4h5.2v-4h-1.4v-1.2h4.3v1.2h-1.4v9.5h1.4v1.2h-4.3v-1.2h1.4V88h-5.2v4.4h1.4v1.2
					h-4.3v-1.2h1.4v-9.5h-1.4V81.7z"/>
				<path class="st0" d="M177.7,91.1c-0.2,0.6-0.4,1-0.7,1.4c-0.7,0.8-1.7,1.3-2.8,1.3c-2.5,0-4.2-1.9-4.2-4.7c0-2.7,1.7-4.7,4-4.7
					c2.3,0,4,1.7,4,4.9h-6.5c0.1,1.3,0.4,2.1,1,2.7c0.5,0.5,1,0.7,1.7,0.7c1,0,1.7-0.5,2.1-1.6H177.7z M176.4,88.3
					c-0.1-1.1-0.4-1.7-0.9-2.3c-0.4-0.4-0.9-0.6-1.5-0.6c-1.1,0-2,0.7-2.4,1.9c-0.1,0.2-0.2,0.6-0.2,0.9H176.4z"/>
				<path class="st0" d="M187.6,93.5H185v-1.6c-0.7,1.1-1.7,1.8-3,1.8c-1.7,0-2.9-1.2-2.9-2.7c0-1.7,1.5-2.6,5.1-2.9
					c0.1,0,0.5-0.1,0.8-0.1v-0.9c0-1-0.8-1.7-2-1.7c-1.3,0-1.9,0.4-2.2,1.6h-1.4c0.2-0.9,0.5-1.4,1-1.9c0.6-0.5,1.4-0.8,2.4-0.8
					c1.9,0,3.4,0.9,3.4,3.1v5h1.3V93.5z M185,88.9l-0.8,0.1c-2.8,0.3-3.7,0.8-3.7,2c0,0.9,0.8,1.7,1.9,1.7c1.6,0,2.6-1.5,2.6-2.3
					V88.9z"/>
				<path class="st0" d="M188.2,81.2h2.6v11.3h1.2v1.1h-3.8v-1.1h1.3V82.2h-1.3V81.2z"/>
				<path class="st0" d="M193.8,82.2h1.3v2.3h2.2v1.1h-2.2v5.9c0,1.1,0.3,1.2,1.7,1.2l0.5,0v1c-0.5,0-1.1,0.1-1.6,0.1
					c-1.4,0-1.9-0.4-1.9-1.8v-6.4h-1.5v-1.1h1.5V82.2z"/>
				<path class="st0" d="M198,81.2h2.6v5.1c0.7-1.1,1.9-2,3.1-2c0.6,0,1.3,0.3,1.7,0.7c0.5,0.6,0.8,1.5,0.8,3v4.5h1.3v1.1h-2.6v-5.8
					c0-1.5-0.6-2.2-1.7-2.2c-0.7,0-1.6,0.5-2.1,1.3c-0.4,0.5-0.5,0.8-0.5,2.4v3.3h1.2v1.1h-3.9v-1.1h1.4V82.2H198V81.2z"/>
				<path class="st1" d="M213.6,87.6h3.9v-3.9h1.1v3.9h4v1.1h-4v3.9h-1.1v-3.9h-3.9V87.6z"/>
				<path class="st0" d="M228.7,81.7h8.6v3.5H236v-2.3h-4.4v4h4.4V88h-4.4v4.4h1.9v1.2h-4.8v-1.2h1.4v-9.5h-1.4V81.7z"/>
				<path class="st0" d="M238.3,84.5h2.6v8h1.3v1.1h-4v-1.1h1.4v-6.9h-1.3V84.5z M239.4,81.6h1.5v1.5h-1.5V81.6z"/>
				<path class="st0" d="M244,82.2h1.3v2.3h2.2v1.1h-2.2v5.9c0,1.1,0.3,1.2,1.7,1.2l0.5,0v1c-0.5,0-1.1,0.1-1.6,0.1
					c-1.4,0-1.9-0.4-1.9-1.8v-6.4h-1.5v-1.1h1.5V82.2z"/>
				<path class="st0" d="M252,92.5v1.1h-3.9v-1.1h1.3v-6.9h-1.3v-1.1h2.6v1.7c0.4-0.5,1.2-1.9,3-1.9c1.6,0,2.6,1.2,2.6,3.2v5h1.3
					v1.1h-2.6v-6c0-1.3-0.7-2.1-1.7-2.1c-1.3,0-2.6,1.4-2.6,2.8v4.2H252z"/>
				<path class="st0" d="M266.5,91.1c-0.2,0.6-0.4,1-0.7,1.4c-0.7,0.8-1.7,1.3-2.8,1.3c-2.5,0-4.2-1.9-4.2-4.7c0-2.7,1.7-4.7,4-4.7
					c2.3,0,4,1.7,4,4.9h-6.5c0.1,1.3,0.4,2.1,1,2.7c0.5,0.5,1,0.7,1.7,0.7c1,0,1.7-0.5,2.1-1.6H266.5z M265.2,88.3
					c-0.1-1.1-0.4-1.7-0.9-2.3c-0.4-0.4-0.9-0.6-1.5-0.6c-1.1,0-2,0.7-2.4,1.9c-0.1,0.2-0.2,0.6-0.2,0.9H265.2z"/>
				<path class="st0" d="M273.7,84.5h1v2.7h-1c-0.3-0.6-0.4-0.8-0.7-1.1c-0.5-0.5-1.1-0.7-1.9-0.7c-1,0-1.8,0.7-1.8,1.5
					c0,0.8,0.5,1.1,2.1,1.3c2.5,0.3,3.7,1,3.7,2.8c0,1.6-1.3,2.9-3,2.9c-1.7,0-2.4-1-3-1.7v1.5h-1.1v-2.9h1c0.3,0.6,0.4,0.9,0.8,1.2
					c0.5,0.5,1.2,0.8,1.9,0.8c1.2,0,2-0.7,2-1.7c0-0.9-0.5-1.2-2.3-1.4l-0.5-0.1c-1.9-0.2-3-1.1-3-2.4c0-1.6,1.2-2.7,2.9-2.7
					c1.6,0,2.3,1,2.8,1.6V84.5z"/>
				<path class="st0" d="M282.3,84.5h1v2.7h-1c-0.3-0.6-0.4-0.8-0.7-1.1c-0.5-0.5-1.1-0.7-1.9-0.7c-1,0-1.8,0.7-1.8,1.5
					c0,0.8,0.5,1.1,2.1,1.3c2.5,0.3,3.7,1,3.7,2.8c0,1.6-1.3,2.9-3,2.9c-1.7,0-2.4-1-3-1.7v1.5h-1.1v-2.9h1c0.3,0.6,0.4,0.9,0.8,1.2
					c0.5,0.5,1.2,0.8,1.9,0.8c1.2,0,2-0.7,2-1.7c0-0.9-0.5-1.2-2.3-1.4l-0.5-0.1c-1.9-0.2-3-1.1-3-2.4c0-1.6,1.2-2.7,2.9-2.7
					c1.6,0,2.3,1,2.8,1.6V84.5z"/>
			</g>
			<path class="st1" d="M291.3,83.8v1.5h0.4v-1.1h0.8v3.4H292v0.4h1.7v-0.4h-0.6v-3.4h0.8v1.1h0.4v-1.5H291.3z M298.2,83.8l-1.1,3.5
				l-1.1-3.5h-1.3v0.4h0.5v3.4h-0.5v0.4h1v-3.8l1.2,3.8h0.4l1.2-3.8v3.8h1v-0.4H299v-3.4h0.5v-0.4H298.2z"/>
		</g>
	</g>
	<path class="st1" d="M138,92.6c0,0-1.1-1-1.3,0.8c0,0-0.4,1.9-1.5,1.9c0,0-1.8-8.9-4.3-8.8c0,0-2.4,0.2-3.5,4.2
		c0,0-2.2-2.7-3.6-6.2c1.5,0.9,3.4,1.7,4.7,1.8c0,0,1.7,0.5,2.3-4.5c0,0,0.4-1.8,0.7-2.4c0,0,0.3-0.7-0.3-1c0,0-0.8-0.7-1.5-0.3
		l-0.7,0.3l-0.3,0.6l0.5,1.2l0.5,0.4c0,0-1.2,2.9-2.3,2.5c0,0-2.8-0.7-4.8-3.3c-0.1-1,0-2,0.2-2.9c0,0,9.2,1.4,9.3-4l2.5-0.4
		c0,0-6.5-5.4-6.1-8.5c0,0-2-3.4-5.1-4.1c0,0,1.9,1.5,1.8,2.5c0,0-4-2.9-7.6-2.1c0,0,2.8,0.6,2.5,1.2c0,0-6.2-1.4-7.2,2.9
		c0,0,1.6-1.5,3-1.1c0,0-2.1,1.1-1.9,2.8c0,0,1.5-1.1,2.4-0.3c0,0-2.6,1.1-1.9,6.4c0,0,0.7-2.2,2.2-1c0,0,0.3,2,3.5,4.1
		c0,0-0.7,3-2.2,2.6c0,0-4.4-4.8-8.3-4.5c0,0-2.3-0.2-1.7,5.9c0,0,0,2.2-0.2,3c0,0-0.2,0.9,0.6,1.1c0,0,1.1,0.6,1.8,0l0.7-0.5
		l0.2-0.8l-0.9-1.3l-0.7-0.4c0,0,0.6-3.8,2.1-3c0,0,2,3,4.1,3.4c0,0-3.8,5.7-1.3,11.2c0,0-1.6,0-2.1,1.7c0,0-1.1-2-4.2-2
		c0,0-0.7-0.9-1.4-0.2c0,0,0.2,3.4-0.1,4.8c0,0,1.6-0.3,1.6-3.2l4.4,4.7c0,0,0.8,1.2,2.7,0.1c0,0,8-6.8,14.3-1.7l0.1-3.1
		c0,0,3.4,1.4,6,5.2C135.6,98.5,138.6,96.2,138,92.6z"/>
</g>
</svg>
