<?xml version="1.0" encoding="UTF-8" standalone="no"?>
<!-- Created with Inkscape (http://www.inkscape.org/) -->

<svg
   xmlns:dc="http://purl.org/dc/elements/1.1/"
   xmlns:cc="http://creativecommons.org/ns#"
   xmlns:rdf="http://www.w3.org/1999/02/22-rdf-syntax-ns#"
   xmlns:svg="http://www.w3.org/2000/svg"
   xmlns="http://www.w3.org/2000/svg"
   xmlns:sodipodi="http://sodipodi.sourceforge.net/DTD/sodipodi-0.dtd"
   xmlns:inkscape="http://www.inkscape.org/namespaces/inkscape"
   id="svg6574"
   version="1.1"
   inkscape:version="0.91 r13725"
   xml:space="preserve"
   width="851.45374"
   height="744.26874"
   viewBox="0 0 851.45374 744.26874"
   sodipodi:docname="original-original-ignitelogo_pb_noprog.svg"><metadata
     id="metadata6580"><rdf:RDF><cc:Work
         rdf:about=""><dc:format>image/svg+xml</dc:format><dc:type
           rdf:resource="http://purl.org/dc/dcmitype/StillImage" /><dc:title></dc:title></cc:Work></rdf:RDF></metadata><defs
     id="defs6578"><clipPath
       clipPathUnits="userSpaceOnUse"
       id="clipPath6588"><path
         d="m 0,595.415 681.163,0 L 681.163,0 0,0 0,595.415 Z"
         id="path6590"
         inkscape:connector-curvature="0" /></clipPath></defs><sodipodi:namedview
     pagecolor="#ffffff"
     bordercolor="#666666"
     borderopacity="1"
     objecttolerance="10"
     gridtolerance="10"
     guidetolerance="10"
     inkscape:pageopacity="0"
     inkscape:pageshadow="2"
     inkscape:window-width="640"
     inkscape:window-height="480"
     id="namedview6576"
     showgrid="false"
     inkscape:zoom="0.31708977"
     inkscape:cx="425.72687"
     inkscape:cy="372.13437"
     inkscape:window-x="0"
     inkscape:window-y="0"
     inkscape:window-maximized="0"
     inkscape:current-layer="g6582" /><g
     id="g6582"
     inkscape:groupmode="layer"
     inkscape:label="original-original-ignitelogo_pb_noprog"
     transform="matrix(1.25,0,0,-1.25,0,744.26875)"><g
       id="g6584"><g
         id="g6586"
         clip-path="url(#clipPath6588)"><g
           id="g6592"
           transform="translate(243.5397,325.4876)"><path
             d="m 0,0 c -0.294,-0.758 -1.171,-1.236 -2.627,-1.434 0.004,-3.09 0.051,-6.001 0.143,-8.727 l 0.053,-4.04 c -10e-4,-0.033 0.03,-0.1 0.093,-0.202 0.064,-0.101 0.096,-0.185 0.095,-0.251 -0.006,-0.233 -0.068,-0.372 -0.189,-0.419 -0.119,-0.047 -0.244,-0.069 -0.379,-0.066 -0.271,0.006 -0.608,0.096 -1.007,0.273 -1.004,0.423 -1.512,1.098 -1.523,2.032 l 0.067,2.789 0.148,8.371 c -2.386,-0.242 -5.482,-0.485 -9.289,-0.726 -0.044,-1.827 0.011,-4.438 0.162,-7.831 0.087,-0.568 0.252,-1.27 0.499,-2.105 0.126,-0.202 0.19,-0.405 0.185,-0.603 -0.008,-0.332 -0.264,-0.493 -0.77,-0.481 -0.774,0.018 -1.448,0.36 -2.022,1.02 -0.574,0.662 -0.852,1.375 -0.834,2.14 0.093,3.919 0.14,6.477 0.135,7.673 -0.759,-0.049 -1.205,-0.069 -1.336,-0.066 -0.525,0.012 -1.212,0.193 -2.061,0.547 -0.977,0.388 -1.46,0.799 -1.449,1.23 l 0.002,0.099 0.054,0.149 c 0.136,0.13 1.769,0.34 4.899,0.632 -0.029,3.324 -0.095,8.311 -0.193,14.96 -0.07,1.165 -0.162,2.912 -0.273,5.241 -0.191,0.37 -0.284,0.638 -0.28,0.804 0.003,0.133 0.022,0.241 0.057,0.324 0.035,0.081 0.169,0.12 0.402,0.114 0.499,-0.012 1.16,-0.161 1.984,-0.445 1.02,-0.357 1.528,-0.719 1.519,-1.084 -0.013,-0.566 -0.044,-1.312 -0.09,-2.241 -0.053,-1.129 -0.096,-1.876 -0.129,-2.239 -0.088,-2.659 -0.17,-5.581 -0.246,-8.769 -0.052,-2.192 -0.103,-4.335 -0.153,-6.428 l 9.337,0.576 c 0.05,3.488 0.025,8.774 -0.071,15.854 0.011,0.466 -0.033,2.079 -0.135,4.839 -0.052,1.963 -0.064,3.574 -0.034,4.837 0.002,0.066 0.018,0.115 0.054,0.148 l 0.051,0.049 0.099,0.048 c 0.035,-10e-4 0.413,-0.094 1.14,-0.277 1.421,-0.366 2.124,-0.848 2.11,-1.446 C -1.857,22.543 -1.973,19.066 -2.15,14.434 -2.326,9.801 -2.442,6.339 -2.497,4.047 -2.52,3.05 -2.53,1.954 -2.525,0.758 -1.962,0.71 -1.498,0.665 -1.132,0.624 -0.436,0.508 -0.06,0.35 0.004,0.149 L 0,0 Z"
             style="fill:#e92d91;fill-opacity:1;fill-rule:nonzero;stroke:none"
             id="path6594"
             inkscape:connector-curvature="0" /></g><g
           id="g6596"
           transform="translate(254.5592,325.623)"><path
             d="m 0,0 c 0.136,5.714 -0.707,9.39 -2.53,11.029 -0.292,0.272 -0.488,0.411 -0.587,0.413 -0.233,0.006 -0.486,-0.106 -0.755,-0.332 -1.594,-1.325 -2.436,-3.847 -2.524,-7.567 -0.054,-2.259 0.271,-3.995 0.973,-5.208 0.064,-0.101 0.299,-0.374 0.704,-0.814 0.405,-0.443 0.606,-0.713 0.603,-0.814 -0.006,-0.265 -0.275,-0.391 -0.806,-0.378 -1.463,0.035 -2.581,1.224 -3.356,3.569 L -8.292,-0.7 c -0.084,-2.125 0.104,-4.074 0.56,-5.847 0.608,-2.339 1.618,-3.942 3.026,-4.807 0.361,-0.208 0.64,-0.313 0.84,-0.318 0.199,-0.005 0.434,0.089 0.705,0.281 1.048,0.806 1.872,2.566 2.467,5.276 C -0.281,-4.164 -0.05,-2.125 0,0 m 2.46,0.641 c -0.124,-5.216 -1.146,-9.032 -3.066,-11.444 -1.06,-1.338 -2.207,-1.991 -3.436,-1.962 -2.524,0.06 -4.399,1.566 -5.625,4.521 -0.912,2.248 -1.332,4.818 -1.264,7.707 0.033,1.362 0.225,3.069 0.571,5.121 0.43,2.649 0.914,4.149 1.453,4.502 0.236,0.126 0.537,0.187 0.903,0.179 0.166,-0.004 0.347,-0.043 0.546,-0.113 0.591,1.148 1.074,1.918 1.45,2.308 0.682,0.714 1.504,1.061 2.468,1.038 0.697,-0.016 1.324,-0.197 1.88,-0.543 C 1.221,10.092 2.595,6.321 2.46,0.641"
             style="fill:#e92d91;fill-opacity:1;fill-rule:nonzero;stroke:none"
             id="path6598"
             inkscape:connector-curvature="0" /></g><g
           id="g6600"
           transform="translate(270.1108,323.459)"><path
             d="m 0,0 c -0.05,-2.093 -0.435,-4.327 -1.155,-6.703 -0.976,-3.201 -2.192,-4.782 -3.654,-4.747 -4.748,0.113 -6.98,6.214 -6.692,18.305 0.038,1.594 0.073,3.055 0.104,4.383 -0.493,-0.054 -0.805,-0.079 -0.936,-0.076 -0.326,0.007 -0.798,0.126 -1.414,0.357 -0.618,0.23 -0.923,0.479 -0.917,0.745 0.002,0.099 0.305,0.193 0.904,0.277 l 2.552,0.339 c 0.179,1.956 0.449,4.907 0.808,8.853 0.032,0 0.1,0.015 0.2,0.046 0.166,-0.004 0.399,-0.043 0.695,-0.116 1.521,-0.369 2.305,-0.853 2.359,-1.452 -0.159,-1.093 -0.338,-2.303 -0.536,-3.626 -0.158,-1.094 -0.284,-2.205 -0.378,-3.332 3.731,0.344 5.58,0.516 5.548,0.517 0.232,-0.006 0.346,-0.077 0.343,-0.208 -0.008,-0.366 -0.399,-0.671 -1.168,-0.92 0.063,-0.069 0.097,-0.136 0.096,-0.201 -0.006,-0.233 -0.129,-0.43 -0.365,-0.59 -0.1,-0.064 -1.634,-0.227 -4.598,-0.489 -0.175,-1.79 -0.277,-3.301 -0.306,-4.528 -0.095,-3.988 -0.048,-6.912 0.139,-8.778 0.338,-3.931 1.174,-6.511 2.508,-7.738 0.326,-0.274 0.604,-0.429 0.837,-0.469 1.184,0.869 2.153,2.492 2.908,4.867 0.466,1.485 0.836,3.104 1.112,4.859 0.083,0.696 0.24,1.042 0.473,1.036 C -0.168,0.602 0.01,0.399 0,0"
             style="fill:#e92d91;fill-opacity:1;fill-rule:nonzero;stroke:none"
             id="path6602"
             inkscape:connector-curvature="0" /></g><g
           id="g6604"
           transform="translate(287.4955,317.7442)"><path
             d="m 0,0 c -0.026,-1.089 -0.246,-2.411 -0.659,-3.965 -0.524,-2.067 -1.163,-3.092 -1.914,-3.074 -0.079,0.002 -0.189,0.015 -0.326,0.038 -1.38,0.27 -2.338,1.649 -2.873,4.138 -0.358,1.592 -0.512,3.447 -0.461,5.566 0.033,1.405 0.099,2.898 0.196,4.481 -0.77,-4.022 -1.317,-7.049 -1.642,-9.08 -0.233,-1.421 -0.352,-2.3 -0.36,-2.636 -0.005,-0.179 0.008,-0.451 0.04,-0.818 0.03,-0.367 0.044,-0.639 0.04,-0.818 -0.004,-0.178 -0.135,-0.264 -0.393,-0.258 -0.692,0.017 -1.144,0.216 -1.351,0.597 -0.116,0.18 -0.18,0.391 -0.193,0.627 -0.14,1.549 -0.364,6.109 -0.673,13.68 -0.535,-2.937 -0.971,-5.54 -1.309,-7.808 -0.444,-3.159 -0.681,-5.402 -0.712,-6.728 -0.004,-0.138 0.008,-0.495 0.034,-1.07 0.037,-0.08 0.055,-0.16 0.053,-0.239 -10e-4,-0.06 -0.012,-0.099 -0.032,-0.118 -0.024,-0.139 -0.174,-0.204 -0.45,-0.198 -0.179,0.005 -0.45,0.07 -0.813,0.198 -0.364,0.128 -0.593,0.256 -0.689,0.387 -0.096,0.131 -0.142,0.296 -0.137,0.495 -0.078,3.368 -0.274,8.432 -0.589,15.193 -0.072,1.17 -0.238,2.906 -0.499,5.211 -0.052,0.337 -0.158,0.507 -0.315,0.511 -0.396,0.009 -1.003,-0.967 -1.823,-2.927 -0.757,-1.843 -1.141,-3.062 -1.155,-3.656 0.135,-0.142 0.122,-0.24 -0.038,-0.295 -0.277,0.007 -0.566,0.107 -0.869,0.302 -0.302,0.196 -0.45,0.421 -0.444,0.679 0.004,0.198 0.166,0.739 0.484,1.623 0.382,1.079 0.851,2.068 1.408,2.967 0.805,1.366 1.553,2.041 2.246,2.025 0.791,-0.019 1.385,-0.459 1.78,-1.319 0.908,-1.844 1.365,-7.142 1.376,-15.897 0.057,0.653 0.211,1.805 0.463,3.462 0.33,2.368 0.792,5.428 1.388,9.179 0.073,0.511 0.2,1.271 0.382,2.277 0.022,0.061 0.102,0.089 0.24,0.085 0.039,-10e-4 0.266,-0.056 0.679,-0.165 0.709,-0.195 1.125,-0.373 1.251,-0.535 0.125,-0.161 0.179,-0.608 0.162,-1.341 C -8.574,7.57 -8.542,3.519 -8.4,-1.377 c 0.371,2.428 1.066,6.106 2.084,11.034 l 0.307,1.359 c 0.045,0.215 0.166,0.321 0.365,0.316 0.138,-0.003 0.6,-0.162 1.386,-0.478 0.295,-0.107 0.436,-0.447 0.422,-1.019 L -3.989,8.382 C -4.254,5.576 -4.395,3.816 -4.411,3.105 c -0.12,-5.028 0.412,-8.031 1.597,-9.008 0.537,0.124 1.036,1.053 1.493,2.786 0.108,0.413 0.332,1.546 0.675,3.4 0.043,0.215 0.174,0.291 0.391,0.228 C -0.079,0.466 0.007,0.297 0,0"
             style="fill:#373535;fill-opacity:1;fill-rule:nonzero;stroke:none"
             id="path6606"
             inkscape:connector-curvature="0" /></g><g
           id="g6608"
           transform="translate(296.8555,316.6297)"><path
             d="m 0,0 c -0.019,-0.792 -0.201,-1.788 -0.546,-2.987 -0.453,-1.534 -0.946,-2.294 -1.481,-2.281 -0.93,0.022 -1.693,0.811 -2.289,2.371 -0.411,1.058 -0.689,2.233 -0.837,3.525 -0.444,-3.693 -1.151,-5.527 -2.121,-5.504 -0.535,0.013 -1.053,0.271 -1.556,0.779 -1.335,1.339 -1.962,3.651 -1.884,6.936 0.01,0.416 0.081,0.969 0.216,1.659 0.271,1.419 0.738,2.705 1.4,3.859 0.93,1.62 1.75,2.423 2.463,2.407 0.395,-0.01 0.991,-0.327 1.789,-0.951 C -4.049,9.192 -3.653,8.741 -3.66,8.464 -3.663,8.305 -3.744,8.229 -3.902,8.233 -3.923,8.234 -4.112,8.405 -4.47,8.75 -4.828,9.095 -5.156,9.272 -5.453,9.279 -5.611,9.283 -5.811,9.218 -6.051,9.085 -7.056,8.515 -7.836,7.346 -8.393,5.576 -8.862,4.202 -9.113,2.761 -9.149,1.258 c -0.045,-1.881 0.217,-3.372 0.784,-4.475 0.304,-0.602 0.544,-0.904 0.723,-0.909 0.138,-0.003 0.309,0.141 0.514,0.433 0.799,1.111 1.404,4.067 1.816,8.869 0.082,0.969 0.203,1.451 0.361,1.448 0.375,-0.009 0.74,-0.078 1.094,-0.205 0.47,-0.17 0.703,-0.414 0.695,-0.731 C -3.17,5.33 -3.207,4.785 -3.275,4.052 -3.342,3.318 -3.38,2.774 -3.388,2.416 c -0.03,-1.25 0.031,-2.453 0.181,-3.609 0.238,-1.655 0.63,-2.675 1.176,-3.066 0.511,0.686 0.955,1.91 1.334,3.676 0.134,0.635 0.27,0.95 0.409,0.947 C -0.09,0.359 0.006,0.238 0,0"
             style="fill:#373535;fill-opacity:1;fill-rule:nonzero;stroke:none"
             id="path6610"
             inkscape:connector-curvature="0" /></g><g
           id="g6612"
           transform="translate(309.4414,316.1821)"><path
             d="m 0,0 c -0.016,-0.674 -0.176,-1.551 -0.479,-2.632 -0.369,-1.319 -0.762,-2.062 -1.182,-2.229 -0.082,-0.039 -0.24,-0.054 -0.477,-0.049 -1.207,0.029 -2.047,0.93 -2.52,2.704 -0.29,1.115 -0.416,2.485 -0.377,4.109 0.02,0.869 0.07,1.681 0.147,2.432 -1.125,-4.013 -1.705,-6.752 -1.74,-8.218 -0.004,-0.158 0.049,-0.427 0.159,-0.806 -0.004,-0.158 -0.086,-0.234 -0.245,-0.23 -0.279,0.006 -0.575,0.112 -0.888,0.318 -0.314,0.204 -0.512,0.442 -0.596,0.712 -0.082,0.269 -0.179,3.158 -0.286,8.669 l -1.25,-5.05 c -0.453,-1.892 -0.68,-2.957 -0.686,-3.194 -0.004,-0.158 0.015,-0.393 0.057,-0.701 0.041,-0.308 0.061,-0.53 0.058,-0.669 -0.004,-0.159 -0.094,-0.236 -0.272,-0.231 -0.1,0.002 -0.256,0.044 -0.473,0.13 -0.804,0.334 -1.209,0.77 -1.216,1.305 l -0.054,6.507 c -0.086,-1.126 -0.155,-1.908 -0.203,-2.341 -0.15,-1.304 -0.296,-2.013 -0.437,-2.129 -0.021,-0.02 -0.06,-0.028 -0.12,-0.026 -0.377,0.009 -0.52,0.171 -0.434,0.484 0.088,0.394 0.176,0.778 0.264,1.153 0.386,2.03 0.615,4.59 0.688,7.678 0.018,0.731 0.023,1.335 0.014,1.811 -0.036,0.139 -0.08,0.348 -0.133,0.627 l 0.091,0.057 c 0.019,0 0.313,-0.076 0.885,-0.229 0.452,-0.11 0.736,-0.265 0.85,-0.466 0.114,-0.2 0.166,-0.548 0.154,-1.042 l -0.07,-9.208 2.069,8.358 c 0.131,0.53 0.325,0.795 0.583,0.789 C -8.1,8.392 -7.991,8.358 -7.794,8.294 -7.323,8.164 -7.038,8.068 -6.94,8.008 -6.627,7.84 -6.474,7.599 -6.481,7.284 -6.48,7.361 -6.518,6.977 -6.597,6.127 -6.683,5.061 -6.74,3.933 -6.768,2.745 L -6.807,1.083 C -6.819,0.588 -6.823,0.013 -6.818,-0.64 l 1.903,7.589 c 0.066,0.276 0.188,0.412 0.366,0.408 -0.02,0 0.192,-0.054 0.635,-0.164 0.443,-0.11 0.683,-0.175 0.723,-0.196 C -2.996,6.874 -2.902,6.644 -2.91,6.307 -2.913,6.188 -2.987,5.605 -3.13,4.56 -3.295,3.435 -3.389,2.437 -3.409,1.567 -3.49,-1.818 -3.06,-3.7 -2.118,-4.079 c 0.421,0.188 0.928,1.503 1.52,3.944 0.045,0.237 0.146,0.354 0.306,0.35 C -0.095,0.21 0.003,0.138 0,0"
             style="fill:#373535;fill-opacity:1;fill-rule:nonzero;stroke:none"
             id="path6614"
             inkscape:connector-curvature="0" /></g><g
           id="g6616"
           transform="translate(319.0336,316.1023)"><path
             d="m 0,0 c -0.019,-0.792 -0.201,-1.788 -0.547,-2.987 -0.452,-1.535 -0.945,-2.294 -1.479,-2.281 -0.932,0.022 -1.693,0.811 -2.291,2.371 -0.41,1.058 -0.689,2.233 -0.836,3.525 -0.445,-3.693 -1.152,-5.527 -2.122,-5.504 -0.534,0.013 -1.053,0.271 -1.556,0.779 -1.334,1.339 -1.962,3.651 -1.884,6.936 0.01,0.416 0.082,0.969 0.217,1.659 0.272,1.419 0.738,2.705 1.399,3.859 0.93,1.62 1.751,2.423 2.464,2.406 0.395,-0.009 0.991,-0.326 1.789,-0.95 C -4.049,9.192 -3.654,8.741 -3.661,8.464 -3.664,8.305 -3.746,8.229 -3.903,8.233 -3.923,8.233 -4.112,8.405 -4.47,8.75 -4.829,9.095 -5.156,9.272 -5.453,9.279 -5.612,9.283 -5.81,9.218 -6.052,9.085 -7.056,8.515 -7.836,7.346 -8.393,5.576 -8.861,4.202 -9.114,2.761 -9.15,1.258 c -0.044,-1.881 0.218,-3.372 0.785,-4.475 0.303,-0.602 0.544,-0.905 0.722,-0.909 0.138,-0.003 0.31,0.141 0.515,0.433 0.799,1.111 1.404,4.067 1.815,8.869 0.083,0.969 0.202,1.451 0.361,1.448 C -4.576,6.615 -4.21,6.546 -3.857,6.419 -3.385,6.249 -3.155,6.005 -3.162,5.688 -3.171,5.33 -3.209,4.785 -3.274,4.052 -3.342,3.318 -3.38,2.774 -3.388,2.416 c -0.03,-1.25 0.03,-2.453 0.182,-3.609 0.237,-1.655 0.629,-2.675 1.174,-3.066 0.511,0.685 0.956,1.91 1.335,3.676 0.134,0.635 0.27,0.95 0.409,0.947 C -0.09,0.359 0.006,0.238 0,0"
             style="fill:#373535;fill-opacity:1;fill-rule:nonzero;stroke:none"
             id="path6618"
             inkscape:connector-curvature="0" /></g><g
           id="g6620"
           transform="translate(367.6015,297.7166)"><path
             d="m 0,0 c 0.983,0 1.866,0.688 2.075,1.689 0.114,0.549 2.744,13.557 -2.118,23.465 -0.67,1.401 -2.654,3.932 -5.791,4.423 -3.206,0.49 -6.635,-1.17 -10.21,-4.963 l -0.107,-0.123 c -0.058,-0.072 -6.06,-7.462 -12.754,-7.171 -3.267,0.141 -6.275,2.209 -8.942,6.145 -10e-4,0.003 -1.923,3.048 -3.388,10.533 -0.224,1.15 -1.334,1.909 -2.489,1.674 -1.149,-0.224 -1.899,-1.339 -1.674,-2.489 1.626,-8.309 3.787,-11.722 4.029,-12.084 3.475,-5.13 7.61,-7.824 12.301,-8.019 8.462,-0.323 15.41,7.766 16.162,8.678 2.452,2.587 4.717,3.886 6.391,3.63 1.714,-0.25 2.653,-2.082 2.662,-2.1 C 0.374,14.67 -2.055,2.674 -2.08,2.554 -2.319,1.408 -1.583,0.283 -0.435,0.044 -0.29,0.014 -0.144,0 0,0"
             style="fill:#373535;fill-opacity:1;fill-rule:nonzero;stroke:none"
             id="path6622"
             inkscape:connector-curvature="0" /></g><g
           id="g6624"
           transform="translate(411.3171,249.3629)"><path
             d="m 0,0 0,46.231 -7.943,0 c -1.562,0 -2.343,-1.054 -2.343,-3.158 l 0,-4.785 -10.386,0.712 0,17.312 53.258,0 0,-17.312 -10.388,-0.712 0,4.785 c 0,1.155 -0.17,1.97 -0.508,2.445 -0.341,0.474 -1.156,0.713 -2.445,0.713 l -6.923,0 0,-48.676 8.044,-0.305 0,-8.656 -28.717,0 0,8.249 5.398,0.305 C -0.985,-2.648 0,-1.699 0,0"
             style="fill:#e92d91;fill-opacity:1;fill-rule:nonzero;stroke:none"
             id="path6626"
             inkscape:connector-curvature="0" /></g><g
           id="g6628"
           transform="translate(497.2623,237.9572)"><path
             d="m 0,0 -48.37,0 0,8.248 3.36,0.306 c 1.968,0.204 2.953,1.153 2.953,2.852 l 0,47.351 -5.805,0.305 0,8.656 46.64,0 0,-16.904 -10.387,-0.713 0,4.073 c 0,1.153 -0.171,1.968 -0.509,2.445 -0.342,0.473 -1.155,0.712 -2.445,0.712 l -15.07,0 0,-17.414 23.523,0 0,-10.386 -23.523,0 0,-19.042 16.394,0 c 1.223,0 2.002,0.254 2.343,0.763 0.338,0.51 0.508,1.34 0.508,2.495 l 0,5.092 L 0,18.127 0,0 Z"
             style="fill:#e92d91;fill-opacity:1;fill-rule:nonzero;stroke:none"
             id="path6630"
             inkscape:connector-curvature="0" /></g><g
           id="g6632"
           transform="translate(189.3574,249.8712)"><path
             d="m 0,0 0,46.843 -5.804,0.305 0,8.656 24.643,0 0,-8.249 -3.36,-0.305 c -1.97,-0.203 -2.953,-1.29 -2.953,-3.258 l 0,-46.945 5.804,-0.305 0,-8.656 -24.643,0 0,8.248 3.36,0.306 c 1.019,0.135 1.765,0.424 2.24,0.866 C -0.238,-2.054 0,-1.222 0,0"
             style="fill:#e92d91;fill-opacity:1;fill-rule:nonzero;stroke:none"
             id="path6634"
             inkscape:connector-curvature="0" /></g><g
           id="g6636"
           transform="translate(268.481,261.6844)"><path
             d="m 0,0 0,-18.432 c -6.315,-4.345 -14.156,-6.518 -23.524,-6.518 -9.369,0 -16.684,2.937 -21.944,8.81 -5.263,5.871 -7.893,14.576 -7.893,26.119 0,5.091 0.662,9.674 1.987,13.747 1.323,4.073 3.055,7.433 5.193,10.081 2.138,2.648 4.634,4.854 7.484,6.62 5.431,3.189 11.591,4.786 18.483,4.786 6.89,0 13.322,-1.392 19.297,-4.175 l 0,-17.312 -10.387,-0.713 0,7.943 c 0,1.018 -0.136,1.766 -0.407,2.241 -0.749,1.288 -3.837,1.935 -9.266,1.935 -13.104,0 -19.655,-8.113 -19.655,-24.338 0,-17.109 5.906,-25.662 17.72,-25.662 4.683,0 8.281,0.815 10.794,2.444 l 0,15.173 -0.103,0 -7.841,0.305 0,8.656 25.356,0 0,-8.146 L 2.953,3.36 C 1.866,3.224 1.102,2.935 0.662,2.494 0.22,2.052 0,1.221 0,0"
             style="fill:#e92d91;fill-opacity:1;fill-rule:nonzero;stroke:none"
             id="path6638"
             inkscape:connector-curvature="0" /></g><g
           id="g6640"
           transform="translate(279.5788,237.9572)"><path
             d="m 0,0 0,8.248 3.667,0.306 c 1.764,0.135 2.646,1.085 2.646,2.852 l 0,47.351 -5.803,0.305 0,8.656 18.329,0 28.819,-46.741 0.203,0 0,37.78 -6.721,0.305 0,8.656 24.847,0 0,-8.249 -3.665,-0.305 c -1.63,-0.137 -2.445,-1.189 -2.445,-3.157 L 59.877,0 47.963,0 18.534,47.453 l -0.204,0 0,-38.492 L 24.95,8.656 24.95,0 0,0 Z"
             style="fill:#e92d91;fill-opacity:1;fill-rule:nonzero;stroke:none"
             id="path6642"
             inkscape:connector-curvature="0" /></g><path
           d="m 375.975,237.961 -15.558,0 0,67.534 15.558,0 0,-67.534 z"
           style="fill:#373535;fill-opacity:1;fill-rule:nonzero;stroke:none"
           id="path6644"
           inkscape:connector-curvature="0" /><g
           id="g6646"
           transform="translate(332.0265,334.0884)"><path
             d="m 0,0 6.214,19.034 -6.707,-3.422 3.4,17.996 -11.38,-14.021 -10.851,26.061 -0.529,-28.349 -14.776,5.394 11.145,-15.243 -10.382,-3.242 18.685,-7.939 -5.327,6.278 6.809,1.898 -6.186,6.305 6.165,-2.48 -0.961,12.094 5.262,-12.318 4.64,8.726 L -6.336,6.21 0.266,10.051 0,0 Z"
             style="fill:#e92d91;fill-opacity:1;fill-rule:nonzero;stroke:none"
             id="path6648"
             inkscape:connector-curvature="0" /></g></g></g></g></svg>